<svg viewBox="0 0 17.228575 12.461112" version="1.1" stroke="currentColor" aria-label="CT Outline">
				<g transform="translate(0.49124601,0.46081712)">
					<path style="
							fill: none;
							stroke-width: 0.75;
							stroke-dasharray: none;
							stroke-opacity: 1;
						" d="m 7.3988103,-0.15441509 h -5.4977377 -0.13344 l -0.533761,8.48679929 0.040032,0.160128 0.080064,0.1334404 0.2001604,0.313585 0.1134242,0.1467835 0.1467842,0.2602088 0.00667,0.073391 c 0,0 0.020016,0.080065 -0.013344,0.1000807 -0.03336,0.020016 -0.1934885,0.086735 -0.1934885,0.086735 l -0.2135041,0.1401128 -1.60795508,0.9607706 0.0133439,0.106751 0.52879548,0.915901 0.59210252,0.0048 0.34694478,-0.226848 0.2401925,-0.04003 1.0942099,-0.707233 0.1868163,-0.08006 h 0.3469445 l 0.1868163,-0.08006 0.2668803,-0.02669 0.413665,-0.26688 0.3869767,-0.3202565 c 0,0 0.2001604,0.026687 0.2535366,0.026687 0.053376,0 0.2268482,0.240193 0.2268482,0.240193 L 4.9968863,10.093796 5.0235735,9.8936364 V 9.5066588 L 5.3438304,9.6934754 5.6774305,9.5333474 5.9443113,9.2931551 6.4113518,9.1330257 6.6382005,8.6259535 6.8650492,8.5192017 6.945113,8.6926742 6.985146,9.0129298 7.2920589,8.9862426 7.9592591,8.7193618 8.7599006,9.0129302 8.9333727,8.786082 9.3470379,8.812769 9.7607022,8.732704 10.387872,8.706017 l 0.547105,-0.093408 0.386976,-0.1067514 0.146785,0.2401923 0.427009,-0.040033 0.346944,-0.1868152 0.333601,-0.1067527 0.306912,0.013346 0.186817,-0.3336 0.106751,-0.2668813 0.266882,0.4003203 0.427009,-0.066719 0.01334,-1.0942104 0.280224,0.9073938 0.346944,0.06672 0.20016,-0.160129 c 0,0 0.04003,0.013346 0.13344,-0.093408 0.09341,-0.1067518 0.16013,-0.1868165 0.16013,-0.1868165 l 0.133439,0.160128 0.146785,0.080065 h 0.293568 l 0.226848,0.013341 0.09341,0.093408 c 0,0 0.133439,0.013341 0.186817,0.013341 0.05337,0 0.106752,-0.3336014 0.106752,-0.3336014 l 0.02669,-0.3869763 -0.240192,-0.2535367 0.13344,-0.2535349 0.360288,-0.013341 v -0.440351 l -0.02668,-0.4003208 -0.173473,-6.05818651 -6.2983793,-0.013344 c 0,0 -0.3869771,0.10675217 -0.4270088,0.16012838 -0.040033,0.05337608 -0.453696,-0.16012838 -0.453696,-0.16012838 l -0.9614384,0.0266856 -0.1327738,0.37363258 -0.3736331,0.0934083 z"></path>
				</g>
			</svg>
