<svg xmlns="http://www.w3.org/2000/svg" viewBox="0 0 32 32"><path
		fill="#fff"
		d="M3.288 23.099A13.937 14.096 0 0 1 2 17.159c0-.553.028-1.09.091-1.622a14.049 14.21 0 0 1 .273-1.586a14 14.16 0 0 1 4.333-7.37a14.007 14.167 0 0 1 6.37-3.27a14.028 14.188 0 0 1 3.997-.27a13.958 14.118 0 0 1 4.76 1.24a14.021 14.181 0 0 1 3.241 2.088a14.028 14.188 0 0 1 4.732 8.354A14.063 14.224 0 0 1 30 17.16a14.175 14.337 0 0 1-.042 1.076a13.986 14.146 0 0 1-.847 3.9a14.007 14.167 0 0 1-2.779 4.575a7.245 7.328 0 0 1-5.166 2.286a5.054 5.112 0 0 1-4.816-6.442c.119-.453.434-1.317.889-1.7a5.334 5.395 0 0 1-1.435-.977c-.049-.056-.042-.155.007-.22a.182.184 0 0 1 .203-.056a10.206 10.323 0 0 0 1.596.41c.777.128 1.736.298 2.709.34c2.366.121 4.844-.955 5.614-3.093c.763-2.145.469-4.262-2.289-5.53c-2.758-1.274-4.032-2.782-6.258-3.695c-1.456-.595-3.073-.241-4.732.693c-4.48 2.5-8.491 10.408-6.643 17.736a.224.227 0 0 1-.364.22a14.077 14.238 0 0 1-1.463-1.926a14.021 14.181 0 0 1-.896-1.657M15.503 9.017c.749-.057 1.414.594 1.526 1.458c.147 1.154-.273 2.35-1.645 2.38c-1.183.02-1.54-1.176-1.456-1.905c.077-.73.665-1.863 1.568-1.933z"
	/></svg>
